<mxfile host="app.diagrams.net" modified="2024-06-01T13:35:38.351Z" agent="Mozilla/5.0 (Macintosh; Intel Mac OS X 10_15_7) AppleWebKit/537.36 (KHTML, like Gecko) Chrome/124.0.0.0 Safari/537.36" version="24.4.13" etag="n_AKUSRAcTIwcyMBVPxu" type="github">
  <diagram name="페이지-1" id="YgiKmWLemjnqfytn821K">
    <mxGraphModel>
      <root>
        <mxCell id="0" />
        <mxCell id="1" parent="0" />
      </root>
    </mxGraphModel>
  </diagram>
</mxfile>
